<?xml version="1.0" encoding="utf-8"?>
<!-- Generator: Adobe Illustrator 16.0.4, SVG Export Plug-In . SVG Version: 6.00 Build 0)  -->
<!DOCTYPE svg PUBLIC "-//W3C//DTD SVG 1.1//EN" "http://www.w3.org/Graphics/SVG/1.1/DTD/svg11.dtd">
<svg version="1.1"
	 id="svg6381" sodipodi:version="0.32" sodipodi:docbase="I:\Logos\Media\print" sodipodi:docname="Wirtschaftswoche.svg" inkscape:version="0.44.1" xmlns:cc="http://web.resource.org/cc/" xmlns:inkscape="http://www.inkscape.org/namespaces/inkscape" xmlns:dc="http://purl.org/dc/elements/1.1/" xmlns:svg="http://www.w3.org/2000/svg" xmlns:sodipodi="http://sodipodi.sourceforge.net/DTD/sodipodi-0.dtd" xmlns:rdf="http://www.w3.org/1999/02/22-rdf-syntax-ns#"
	 xmlns="http://www.w3.org/2000/svg" xmlns:xlink="http://www.w3.org/1999/xlink" x="0px" y="0px" width="640.594px"
	 height="279.957px" viewBox="0 0 640.594 279.957" enable-background="new 0 0 640.594 279.957" xml:space="preserve">
<sodipodi:namedview  height="79.01mm" width="180.79mm" units="mm" inkscape:current-layer="layer1" inkscape:window-y="29" inkscape:window-x="22" inkscape:pageopacity="0.0" inkscape:window-height="573" inkscape:window-width="925" inkscape:pageshadow="2" inkscape:document-units="px" id="base" inkscape:cy="520" pagecolor="#ffffff" inkscape:zoom="0.35" inkscape:cx="350" borderopacity="1.0" bordercolor="#666666">
	</sodipodi:namedview>
<g id="layer1" transform="translate(-150.5555,-398.0498)" inkscape:groupmode="layer" inkscape:label="Ebene 1">
	<g id="g6448" transform="translate(7.082139,7.094533)">
		<polygon id="_130734048" fill="#706f6b" points="657.505,662.145 774.546,662.145 774.546,545.439 657.505,545.439 		"/>
		<polygon id="_131059136" fill="#706f6b" points="150.556,662.145 267.26,662.145 267.26,545.439 150.556,545.439 		"/>
		<path id="_130367672" fill="#706f6b" d="M755.15,524.706c-6.353,0-12.037-2.676-15.381-8.36l-1.672,6.688h-9.699v-29.428h15.719
			c0,5.687-0.671,20.064,8.359,20.064c4.346,0,6.353-3.678,6.353-7.69c0-17.39-31.099-22.07-31.099-49.157
			c0-13.711,8.359-26.084,22.739-26.084c6.353,0,11.368,2.676,15.047,8.027l1.671-6.354h7.358v28.424h-14.38
			c0-6.354,1.339-18.393-7.689-18.393c-4.015,0-6.02,3.345-6.02,6.688c0,12.926,25.395,18.831,30.528,41.755v15.985
			C774.468,517.052,766.779,524.706,755.15,524.706L755.15,524.706z"/>
		<path id="_129819432" fill="#706f6b" d="M706.662,524.706c-13.376,0-17.055-11.035-17.055-22.404v-58.854h-6.688v-11.035h6.688
			v-20.064h24.077v20.064h10.366v11.035h-10.366v61.863c0,1.004,0.334,2.007,0.669,3.011l1.337,0.669
			c2.007-0.669,3.011-2.008,4.683-3.345l4.681,7.356C720.373,519.356,714.686,524.706,706.662,524.706L706.662,524.706z"/>
		<path id="_130358720" fill="#706f6b" d="M675.562,427.396c0-5.016,1.004-14.713-6.353-14.713c-5.017,0-7.358,5.017-7.358,9.697
			c0,10.031,8.695,10.031,16.387,10.031v11.036h-11.035v68.886h8.694v10.7h-37.786v-10.7h5.016v-68.886h-6.021v-11.036h6.021v-9.028
			c0-13.979,11.468-24.334,24.657-25.333h5.183c4.072,0.206,8.229,0.791,11.959,1.591v27.755H675.562L675.562,427.396z"/>
		<path id="_129768008" fill="#706f6b" d="M537.789,523.034v-67.548c0-6.02-0.335-9.03-4.347-9.03c-3.676,0-6.354,5.687-6.354,9.363
			v56.514h6.354v10.701h-35.445v-10.701h5.016V410.676h-5.016v-11.37h29.092v40.129c4.013-6.02,9.365-8.695,16.387-8.695
			c17.391,0,18.393,13.376,18.393,32.771v48.822h5.351v10.7L537.789,523.034L537.789,523.034z"/>
		<path id="_130358232" fill="#706f6b" d="M471.246,524.706c-26.752,0-30.431-27.086-30.431-48.153
			c0-19.395,4.348-45.813,29.094-45.813c5.016,0,9.697,2.341,13.041,6.354l2.007-4.683h9.028v31.768h-14.379
			c0-17.053-1.004-21.735-7.692-21.735c-5.016,0-6.017,6.02-6.017,9.698v44.809c0,6.02,1.672,13.711,9.361,13.711
			c8.026,0,9.698-13.711,10.702-19.395l10.7,1.671C496.326,508.32,488.97,524.706,471.246,524.706L471.246,524.706z"/>
		<path id="_129874072" fill="#706f6b" d="M415.067,524.706c-6.352,0-11.704-2.676-15.383-8.36l-1.672,6.688h-9.361v-29.428h15.381
			c0,5.687-0.333,20.064,8.36,20.064c4.347,0,6.688-3.678,6.688-7.69c0-17.39-31.433-22.07-31.433-49.157
			c0-13.711,8.36-26.084,22.739-26.084c6.687,0,11.704,2.676,15.048,8.027l2.006-6.354h7.023v28.424h-14.382
			c0-6.354,1.341-18.393-7.689-18.393c-4.013,0-6.019,3.345-6.019,6.688c0,14.044,31.432,20.063,31.432,50.161
			C437.806,513.001,429.783,524.706,415.067,524.706L415.067,524.706L415.067,524.706z"/>
		<path id="_129881688" fill="#706f6b" d="M367.248,524.706c-13.711,0-17.055-11.035-17.055-22.404v-58.854h-6.688v-11.035h6.688
			v-20.064h24.077v20.064h10.365v11.035H374.27v61.863c0,1.004,0.334,2.007,0.669,3.011l1.336,0.669
			c2.008-0.669,3.012-2.008,4.349-3.345l4.682,7.356C380.959,519.356,375.272,524.706,367.248,524.706L367.248,524.706z"/>
		<path id="_130412376" fill="#706f6b" d="M329.461,461.17c0-5.016,1.337-15.716-6.353-15.716c-5.352,0-7.358,5.016-7.358,9.697
			v57.182h7.358v10.701h-36.451v-10.701h5.017v-68.886h-5.017v-11.035h26.084l1.672,6.354c3.009-5.016,9.697-8.027,15.716-8.027
			c2.676,0,7.356,0.336,9.698,1.337v29.094H329.461L329.461,461.17z"/>
		<path id="_129767728" fill="#706f6b" d="M250.541,399.306h25.748v24.076h-25.748V399.306L250.541,399.306z M246.861,523.034
			v-10.701h5.352v-68.886h-5.352v-11.035h29.429v79.921h6.354v10.701H246.861L246.861,523.034z"/>
		<polygon id="_129767808" fill="#706f6b" points="241.178,411.345 226.798,523.034 205.73,523.034 198.711,458.83 189.68,523.034 
			169.951,523.034 156.241,411.345 150.556,411.345 150.556,399.306 184.665,399.306 184.665,411.345 178.644,411.345 
			186.335,470.867 195.365,399.306 215.765,399.306 223.456,470.199 230.81,411.345 225.463,411.345 225.463,399.306 
			246.53,399.306 246.53,411.345 		"/>
		<path id="_130809840" fill="#706f6b" d="M620.053,526.045c-6.688,0-11.703-1.672-15.047-7.358
			c-3.344,5.351-8.695,7.022-14.713,7.022c-16.387,0-21.735-13.041-21.735-27.42c0-20.398,14.712-29.427,33.104-29.427v-17.724
			c0-4.29-0.058-8.695-5.685-8.695c-3.839,0-8.026,1.787-8.026,21.736h-15.049v-31.768h10.367l2.008,6.02
			c4.012-4.348,9.361-6.688,15.381-6.688c22.406,0,24.746,12.373,24.746,31.768v43.807c0,1.004,0.333,2.676,1.673,3.344
			c1.672-0.335,3.675-3.008,4.68-4.347l4.015,9.698C631.757,522.03,627.745,526.045,620.053,526.045L620.053,526.045z
			 M599.654,479.228c-7.021,0-8.359,11.035-8.359,16.052c0,4.014,0,16.051,6.02,16.051c3.342,0,4.348-2.341,4.348-7.356v-24.746
			H599.654L599.654,479.228z"/>
		<path id="_130358344" fill="#706f6b" d="M544.478,662.145v-67.549c0-6.353-0.668-9.028-4.347-9.028
			c-4.012,0-6.688,5.351-6.688,9.363v56.514h6.356v10.7h-35.448v-10.7h5.018V549.785h-5.018v-11.368h29.092v40.127
			c4.014-6.02,9.365-8.692,16.389-8.692c17.388,0,18.391,13.04,18.391,32.771v48.822h5.352v10.7H544.478L544.478,662.145z"/>
		<path id="_130495440" fill="#706f6b" d="M477.599,663.817c-26.752,0-30.096-27.087-30.096-48.154
			c0-19.395,4.348-45.812,28.758-45.812c5.017,0,9.699,2.34,13.043,6.353l2.006-5.016h9.03v32.103h-14.38
			c0-17.39-1.004-22.07-7.691-22.07c-4.683,0-6.02,6.353-6.02,9.698v45.144c0,6.02,2.007,13.709,9.363,13.709
			c8.024,0,10.032-13.709,10.7-19.394l10.7,1.672C502.68,647.431,495.323,663.817,477.599,663.817L477.599,663.817z"/>
		<polygon id="_129946616" fill="#706f6b" points="378.951,550.455 364.572,662.145 343.84,662.145 336.484,597.939 
			327.453,662.145 308.058,662.145 294.35,550.455 288.663,550.455 288.663,538.417 322.772,538.417 322.772,550.455 
			316.754,550.455 324.11,609.643 333.474,538.417 353.537,538.417 361.563,609.31 368.92,550.455 363.568,550.455 363.568,538.417 
			384.636,538.417 384.636,550.455 		"/>
		<path id="_129791232" fill="#706f6b" d="M605.674,663.817c-26.083,0-30.765-25.415-30.765-46.482
			c0-18.392,6.353-47.483,29.763-47.483c21.065,0,28.757,20.063,28.757,38.12c-0.002,5.685-0.333,8.027-0.669,12.039H599.32v17.056
			c0,7.356,2.676,13.04,10.701,13.04c8.026,0,12.038-11.704,13.375-18.392l10.702,1.672
			C632.092,650.441,624.735,663.817,605.674,663.817L605.674,663.817z M610.021,590.249c0-3.344,0-10.032-5.017-10.032
			c-5.016,0-5.685,7.691-5.685,11.37v18.393h11.036L610.021,590.249L610.021,590.249z"/>
		<path id="_129871768" fill="#706f6b" d="M410.386,663.817c-25.08,0-31.435-26.418-31.435-46.817
			c0-20.063,6.354-47.148,31.435-47.148s31.433,27.085,31.433,47.148C441.818,637.399,435.466,663.817,410.386,663.817
			L410.386,663.817z M416.07,590.249c0-3.678-0.668-10.032-5.685-10.032c-5.016,0-5.686,6.354-5.686,10.032v52.835
			c0,3.679,0.67,10.366,5.686,10.366c5.017,0,5.685-6.688,5.685-10.366V590.249z"/>
	</g>
</g>
</svg>
