<svg xmlns="http://www.w3.org/2000/svg" viewBox="0 0 456 47">
    <path fill="#012148" fill-rule="evenodd" d="M451.994 33.838c1.249 0 2.449-.15 3.299-.3v2.9c-1 .199-2.6.399-3.999.399-4.349 0-5.999-2.199-5.999-6.698V14.743h-4.749v-3.099h4.774l.475-7.199h2.999v7.199h6.499v3.099h-6.499v14.996c0 3.049.3 4.099 3.2 4.099zm-32.197-.4l13.871-18.695h-13.871v-3.099h17.995v2.999l-13.971 18.695h13.971v3.1h-17.995v-3zm-7.002 3.399c-4.349 0-5.999-2.199-5.999-6.698V14.743h-4.748v-3.099h4.773l.475-7.199h3v7.199h6.498v3.099h-6.498v14.996c0 3.049.3 4.099 3.199 4.099 1.25 0 2.449-.15 3.299-.3v2.9c-1 .199-2.599.399-3.999.399zm-23.5-2.849c3.799 0 6.248-1.5 6.248-5.099h3.5c0 4.799-3.2 8.048-9.798 8.048-7.398 0-10.498-4.648-10.498-12.996 0-8.448 4.099-12.797 10.648-12.797 6.498 0 9.897 4.099 9.897 11.797v1.999h-17.02c.2 6.049 2.349 9.048 7.023 9.048zm6.498-12.147c-.175-4.799-1.999-7.748-6.498-7.748-4.224 0-6.673 2.624-6.998 7.748h13.496zM371.747 7.295c-1.55 0-2.699-1.1-2.699-2.65 0-1.549 1.149-2.649 2.699-2.649 1.549 0 2.699 1.1 2.699 2.649 0 1.55-1.15 2.65-2.699 2.65zm-1.75 4.349h3.5v28.443c0 4.398-1.7 6.648-5.699 6.648-1 0-2.1-.1-3.049-.3v-2.999c.649.15 1.649.3 2.499.3 2.399 0 2.749-1.25 2.749-3.949V11.644zM342.17 37.087c-8.498 0-11.572-4.724-11.572-13.221 0-8.523 3.374-13.372 11.672-13.372 8.473 0 11.547 4.724 11.547 13.222 0 8.497-3.399 13.371-11.647 13.371zm.075-21.244c-3.299 0-4.499 2.199-4.499 7.948 0 5.748 1.2 7.948 4.499 7.948 3.249 0 4.424-2.2 4.424-7.948 0-5.749-1.15-7.948-4.424-7.948zm-18.95 21.144c-5.373 0-7.373-2.924-7.373-8.448V16.817h-3.999v-5.673h4.024l1.075-7.199h5.948v7.199h5.649v5.673h-5.649v10.848c0 2.649.475 3.399 3.025 3.399.925 0 1.899-.075 2.624-.175v5.549c-1.25.274-3.249.549-5.324.549zm-21.576-16.071c0-2.799-.875-4.124-2.974-4.124-1.55 0-3.224.875-4.499 1.95v17.696h-7.048V11.144h6.348l.3 2.699c2.05-1.85 4.974-3.299 7.848-3.299 5.124 0 7.074 3.149 7.074 7.998v17.896h-7.049V20.916zm-30.198 16.171c-8.498 0-11.572-4.724-11.572-13.221 0-8.523 3.374-13.372 11.672-13.372 8.473 0 11.547 4.724 11.547 13.222 0 8.497-3.399 13.371-11.647 13.371zm.075-21.244c-3.299 0-4.499 2.199-4.499 7.948 0 5.748 1.2 7.948 4.499 7.948 3.249 0 4.424-2.2 4.424-7.948 0-5.749-1.15-7.948-4.424-7.948zm-19.627 20.595l-4.774-9.173-4.598 5.823v3.35h-7.049V.946h7.049v23.269l8.872-13.071h7.449l-7.149 10.622 7.773 14.672h-7.573zm-25.974-14.247c3.35 1 5.899 2.874 5.899 7.098 0 4.074-2.924 7.798-10.547 7.798-6.824 0-10.723-2.249-10.723-8.173h6.948c0 2.3 1.6 3.225 3.8 3.225 2.374 0 3.499-1.025 3.499-2.5 0-1.624-1.15-2.174-2.65-2.624l-5.473-1.6c-3.224-.95-5.724-3.099-5.724-7.098 0-5.124 4.074-7.823 10.422-7.823 6.224 0 10.198 2.349 10.198 7.998h-6.698c-.025-2.3-1.675-3.049-3.474-3.049-2.5 0-3.425 1.174-3.425 2.524 0 1.6 1.1 2.174 2.75 2.674l5.198 1.55zm-22.423 14.796c-5.374 0-7.373-2.924-7.373-8.448V16.817h-8.277v19.621h-7.048V16.817h-4v-5.673h4v-2.45c0-5.573 2.274-8.398 7.523-8.398 1.499 0 3.224.175 4.424.4v5.349a28.14 28.14 0 0 0-2.65-.15c-1.949 0-2.474.8-2.474 2.849v2.4H196.224l1.074-7.199h5.949v7.199h5.649v5.673h-5.649v10.848c0 2.649.475 3.399 3.024 3.399.925 0 1.9-.075 2.625-.175v5.549c-1.25.274-3.25.549-5.324.549zm-40.001-5.198c2.55 0 3.999-1.3 3.999-3.599h6.949c0 3.899-2.15 8.897-10.973 8.897-8.422 0-11.597-4.674-11.597-13.296 0-9.823 4.949-13.297 11.722-13.297 6.874 0 11.098 3.599 11.098 12.822v2.274h-15.672c.151 4.374 1.525 6.199 4.474 6.199zm4.149-10.648c-.125-3.399-1.299-5.348-4.149-5.348-2.674 0-4.199 1.649-4.449 5.348h8.598zm-25.624 12.672c-2.1 1.975-4.724 3.274-7.848 3.274-5.049 0-7.898-2.749-7.898-7.723 0-5.348 3.899-7.773 10.297-7.773h4.749v-1.849c0-2.3-.825-3.899-3.624-3.899-2.225 0-3.599 1.024-3.599 3.074h-6.949c0-5.549 3.999-8.423 10.648-8.423 7.498 0 10.572 3.299 10.572 9.972v15.972h-5.898l-.45-2.625zm-.7-7.773h-3.799c-2.325 0-4.074.8-4.074 2.974 0 1.9 1.2 2.875 3.124 2.875 1.925 0 3.699-1.25 4.749-2.625V26.04zm-25.875-5.124c0-2.799-.875-4.124-2.974-4.124-1.55 0-3.225.875-4.499 1.95v17.696h-7.049V.946h7.049v9.773c0 .825-.05 1.899-.125 2.874 2.024-1.725 4.823-3.049 7.573-3.049 5.198 0 7.073 3.149 7.073 7.998v17.896h-7.048V20.916zM86.472 31.689c2.375 0 3.674-1.425 3.674-4.449h6.949c0 4.849-2.2 9.847-10.723 9.847-8.223 0-11.347-4.674-11.347-13.246 0-8.773 3.599-13.347 11.572-13.347 8.223 0 10.498 4.974 10.498 9.847h-6.949c0-2.999-1.349-4.448-3.724-4.448-3.074 0-4.249 2.349-4.249 7.823 0 5.723 1.35 7.973 4.299 7.973zm-19.85-9.498c3.349 1 5.898 2.874 5.898 7.098 0 4.074-2.924 7.798-10.547 7.798-6.823 0-10.722-2.249-10.722-8.173h6.948c0 2.3 1.6 3.225 3.799 3.225 2.375 0 3.499-1.025 3.499-2.5 0-1.624-1.149-2.174-2.649-2.624l-5.474-1.6c-3.224-.95-5.723-3.099-5.723-7.098 0-5.124 4.074-7.823 10.422-7.823 6.224 0 10.198 2.349 10.198 7.998h-6.699c-.025-2.3-1.674-3.049-3.474-3.049-2.499 0-3.424 1.174-3.424 2.524 0 1.6 1.1 2.174 2.749 2.674l5.199 1.55zm-29.199 9.598c2.55 0 3.999-1.3 3.999-3.599h6.949c0 3.899-2.15 8.897-10.973 8.897-8.423 0-11.597-4.674-11.597-13.296 0-9.823 4.949-13.297 11.722-13.297 6.873 0 11.097 3.599 11.097 12.822v2.274H32.949c.15 4.374 1.525 6.199 4.474 6.199zm4.149-10.648c-.125-3.399-1.3-5.348-4.149-5.348-2.674 0-4.199 1.649-4.449 5.348h8.598zM8.699 32.089h6.649c5.398 0 9.198 1.999 9.198 7.173 0 5.498-5.374 7.573-12.397 7.573h-.3C5.175 46.835.602 45.31.602 40.961c0-2.224 1.299-3.749 3.074-4.648-1.425-.675-2.1-1.975-2.1-3.5 0-1.974 1.35-3.424 2.55-4.599l.999-.974c-2.249-1.7-3.399-4.274-3.399-7.398 0-5.599 3.649-9.498 10.698-9.498 1.749 0 3.299.25 4.623.7.7-1.15.875-2.55.875-4.374v-.425h6.024v.575c0 2.824-.775 5.148-3.149 6.623 1.499 1.625 2.249 3.824 2.249 6.324 0 5.548-3.599 9.522-10.622 9.522-1.05 0-2.025-.075-2.925-.25L8.25 30.414c-.25.275-.525.625-.525 1 0 .45.375.675.974.675zm3.725-7.724c2.249 0 3.699-1.474 3.699-4.523 0-3.1-1.375-4.574-3.724-4.574-2.225 0-3.749 1.424-3.749 4.574 0 3.099 1.399 4.523 3.774 4.523zM6.85 40.137c0 1.874 1.725 2.799 5.349 2.799 3.399 0 5.448-.8 5.448-2.674 0-1.9-1.424-2.55-3.849-2.55l-5.873-.025c-.65.675-1.075 1.5-1.075 2.45z"></path>
    <path fill="#5A9BE7" fill-rule="evenodd" d="M360.647 37.087c2.349 0 4.099-1.724 4.099-4.049 0-2.324-1.75-4.049-4.099-4.049-2.325 0-4.074 1.725-4.074 4.049 0 2.325 1.749 4.049 4.074 4.049z"></path>
</svg>
