<svg xmlns="http://www.w3.org/2000/svg" viewBox="0 0 350 42" >
    <path fill="#010340" fill-rule="evenodd" d="M345.812 8.419a4.199 4.199 0 0 1-4.201-4.207 4.198 4.198 0 0 1 4.201-4.206 4.198 4.198 0 0 1 4.201 4.206 4.198 4.198 0 0 1-4.201 4.207zm-7.992 30.06c0 1.066-.588 2.075-1.708 2.776-.672.421-1.316.617-1.961.617-1.568 0-2.352-.925-3.472-2.72l-5.881-9.338-3.361 3.87v3.197c0 1.766-.084 2.467-.476 3.253-.532 1.065-1.68 1.738-3.164 1.738-1.485 0-2.633-.673-3.165-1.738-.392-.786-.476-1.487-.476-3.253V6.484c0-1.767.084-2.468.476-3.253.532-1.066 1.68-1.739 3.165-1.739 1.484 0 2.632.673 3.164 1.739.392.785.476 1.486.476 3.253V24.43l8.85-10.123c1.288-1.458 2.044-2.103 3.248-2.103.756 0 1.597.281 2.269.87a3.212 3.212 0 0 1 1.148 2.467c0 .954-.448 1.739-1.68 3.141l-5.405 6.141 6.721 10.628c.868 1.402 1.232 2.131 1.232 3.028zm-33.622-30.06a4.198 4.198 0 0 1-4.201-4.207 4.198 4.198 0 0 1 4.201-4.206c2.324 0 4.2 1.879 4.2 4.206a4.198 4.198 0 0 1-4.2 4.207zm-14.215 29.443c-.505 1.739-.981 2.552-1.625 3.085-.728.589-1.568.925-2.632.925a4.068 4.068 0 0 1-2.633-.925c-.644-.533-1.092-1.346-1.624-3.085l-4.677-14.722-4.677 14.722c-.532 1.739-.98 2.552-1.624 3.085a4.065 4.065 0 0 1-2.632.925c-1.065 0-1.905-.336-2.633-.925-.644-.533-1.12-1.346-1.624-3.085l-5.937-20.106c-.476-1.57-.56-2.215-.364-3.056.336-1.402 1.764-2.496 3.36-2.496.953 0 1.765.365 2.325.926.588.617.812 1.177 1.26 2.748l4.117 14.553 4.536-14.497c.505-1.571.897-2.356 1.541-2.917.616-.56 1.372-.813 2.352-.813.98 0 1.737.253 2.353.813.644.561 1.036 1.346 1.54 2.917l4.537 14.497 4.116-14.553c.448-1.571.672-2.131 1.261-2.748.56-.561 1.372-.926 2.324-.926 1.596 0 3.024 1.094 3.361 2.496.196.841.112 1.486-.364 3.056l-5.937 20.106zm-43.94-17.694c-.728 0-1.512-.252-2.492-.757-.868-.449-1.792-.757-2.773-.757-2.436 0-4.844 1.682-4.844 5.384v12.843c0 1.766-.084 2.467-.476 3.253-.532 1.065-1.681 1.738-3.165 1.738s-2.632-.673-3.164-1.738c-.393-.786-.477-1.487-.477-3.253V17.168c0-1.879.084-2.44.532-3.281.533-1.01 1.765-1.683 3.137-1.683.98 0 1.764.309 2.324.841.589.533.925 1.15 1.093 2.216 1.4-1.683 4.06-3.169 6.945-3.169 2.268 0 3.725.477 5.041 1.346 1.092.729 1.848 1.795 1.848 3.057a3.791 3.791 0 0 1-1.092 2.663 3.479 3.479 0 0 1-2.437 1.01zm-26.525 9.142h-14.031c0 3.785 2.213 6.505 6.442 6.505 1.82 0 3.612-.505 5.04-1.57 1.149-.813 1.849-1.094 2.717-1.094 1.4 0 2.94 1.374 2.94 3.057 0 1.374-1.176 2.636-2.856 3.757-1.988 1.346-4.733 2.019-7.953 2.019-6.918 0-13.499-3.14-13.499-14.946 0-9.534 5.125-14.946 12.686-14.946 7.87 0 12.435 5.664 12.687 13.039.028 1.122-.112 2.384-.981 3.253-.924.926-2.1.926-3.192.926zm-3.613-8.161c-.784-1.738-2.436-3-4.901-3-2.436 0-4.116 1.262-4.872 3-.477 1.066-.616 1.907-.645 3.169h11.062c-.056-1.262-.168-2.103-.644-3.169zm-26.448 20.723c-.98 0-1.764-.308-2.324-.841-.588-.533-.868-1.15-1.092-2.131-1.849 2.047-4.621 3.084-7.309 3.084-2.913 0-5.265-.953-6.89-2.579-2.352-2.356-2.968-5.104-2.968-8.301V17.196c0-1.767.084-2.468.476-3.253.532-1.066 1.68-1.739 3.164-1.739 1.485 0 2.633.673 3.165 1.739.392.785.476 1.486.476 3.253v12.899c0 3.954 2.521 5.272 4.817 5.272 2.296 0 4.873-1.318 4.873-5.272V17.196c0-1.767.084-2.468.476-3.253.532-1.066 1.68-1.739 3.165-1.739 1.484 0 2.632.673 3.164 1.739.392.785.476 1.486.476 3.253v19.713c0 1.879-.084 2.439-.532 3.281-.532 1.009-1.764 1.682-3.137 1.682zM160.059 29.31h-14.031c0 3.785 2.212 6.505 6.441 6.505 1.82 0 3.613-.505 5.041-1.57 1.148-.813 1.848-1.094 2.717-1.094 1.4 0 2.94 1.374 2.94 3.057 0 1.374-1.176 2.636-2.856 3.757-1.989 1.346-4.733 2.019-7.954 2.019-6.917 0-13.498-3.14-13.498-14.946 0-9.534 5.125-14.946 12.686-14.946 7.869 0 12.434 5.664 12.686 13.039.028 1.122-.112 2.384-.98 3.253-.924.926-2.1.926-3.192.926zm-3.613-8.161c-.784-1.738-2.436-3-4.901-3-2.436 0-4.117 1.262-4.873 3-.476 1.066-.616 1.907-.644 3.169h11.062c-.056-1.262-.168-2.103-.644-3.169zm-23.714 14.33c.924.056 1.568.14 2.184.448.896.449 1.456 1.29 1.456 2.608 0 1.29-.588 2.159-1.456 2.608-.644.337-1.596.505-2.997.505h-.392c-6.049 0-8.429-4.094-8.429-8.357V18.878h-.728c-1.373 0-1.877-.084-2.465-.392-.868-.449-1.344-1.318-1.344-2.412 0-1.094.476-1.963 1.344-2.412.588-.308 1.092-.392 2.465-.392h.728V9.372c0-1.767.084-2.468.476-3.253.532-1.065 1.68-1.738 3.164-1.738 1.485 0 2.633.673 3.165 1.738.392.785.476 1.486.476 3.253v3.898h2.184c1.373 0 1.877.084 2.465.392.868.449 1.344 1.318 1.344 2.412 0 1.094-.476 1.963-1.344 2.412-.588.308-1.092.392-2.465.392h-2.184v14.021c0 1.374.504 2.468 2.353 2.58zm-29.775-12.03l4.565.449c5.769.532 8.71 3.589 8.71 8.552 0 6.45-5.489 9.534-12.351 9.534-4.592 0-7.505-.841-10.109-2.607-1.009-.674-1.765-1.627-1.765-2.805 0-.981.448-1.906 1.176-2.495.617-.505 1.177-.729 1.933-.729.7 0 1.456.28 2.408.841 1.989 1.178 3.781 1.71 6.469 1.71 2.689 0 5.153-.953 5.153-3.14 0-1.43-.784-2.496-3.08-2.72l-4.593-.421c-5.265-.505-8.569-2.86-8.569-8.244 0-6.057 5.348-9.282 11.313-9.282 2.969 0 5.293.477 7.534 1.402.98.393 1.876.954 2.324 1.43.56.617.756 1.206.756 2.047 0 .813-.448 1.739-.952 2.244-.588.588-1.204.869-2.044.869-.588 0-1.344-.252-2.129-.617-1.764-.813-3.584-1.458-5.657-1.458-2.828 0-4.116 1.374-4.116 2.888 0 1.711 1.092 2.384 3.024 2.552zm-18.914 5.496h-8.514c-1.652 0-2.296-.056-2.996-.421-.952-.504-1.596-1.514-1.596-2.888 0-1.374.644-2.383 1.596-2.888.7-.365 1.344-.421 2.996-.421h8.514c1.652 0 2.296.056 2.996.421.953.505 1.597 1.514 1.597 2.888 0 1.374-.644 2.384-1.597 2.888-.7.365-1.344.421-2.996.421zm-16.175 6.506c.952.504 1.596 1.514 1.596 2.888 0 1.374-.644 2.384-1.596 2.888-.7.365-1.344.421-2.997.421H50.925c-1.484 0-2.241-.084-3.025-.533-1.008-.533-1.484-1.598-1.484-2.552 0-1.262.336-1.934 1.484-3.505l11.706-16.012h-7.897c-1.652 0-2.296-.056-2.997-.42-.952-.505-1.596-1.514-1.596-2.889 0-1.374.644-2.383 1.596-2.888.701-.364 1.345-.42 2.997-.42h13.218c1.484 0 2.241.084 3.025.532 1.008.533 1.484 1.599 1.484 2.552 0 1.262-.336 1.935-1.484 3.505L56.134 35.03h8.737c1.653 0 2.297.056 2.997.421zM40.205 13.242c1.372 0 1.877.084 2.465.392.868.449 1.344 1.318 1.344 2.412 0 1.094-.476 1.963-1.344 2.412-.588.308-1.093.392-2.465.392h-2.184v18.031c0 1.766-.084 2.467-.476 3.253-.532 1.065-1.681 1.738-3.165 1.738s-2.632-.673-3.164-1.738c-.392-.786-.476-1.487-.476-3.253V18.85h-.757c-1.372 0-1.876-.084-2.464-.392-.868-.449-1.344-1.318-1.344-2.412 0-1.094.476-1.963 1.344-2.412.588-.308 1.092-.392 2.464-.392h.757v-3.59c0-4.262 2.38-8.356 8.429-8.356h.392c1.4 0 2.353.168 2.997.505.868.448 1.456 1.318 1.456 2.608 0 1.318-.56 2.159-1.456 2.607-.616.309-1.261.393-2.185.449-1.848.112-2.352 1.206-2.352 2.58v3.197h2.184zM23.677 38.479c0 1.066-.588 2.075-1.708 2.776-.672.421-1.316.617-1.96.617-1.569 0-2.353-.925-3.473-2.72l-5.881-9.338-3.361 3.87v3.197c0 1.766-.084 2.467-.476 3.253-.532 1.065-1.68 1.738-3.164 1.738-1.485 0-2.633-.673-3.165-1.738-.392-.786-.476-1.487-.476-3.253V6.484c0-1.767.084-2.468.476-3.253.532-1.066 1.68-1.739 3.165-1.739 1.484 0 2.632.673 3.164 1.739.392.785.476 1.486.476 3.253V24.43l8.85-10.123c1.288-1.458 2.044-2.103 3.249-2.103.756 0 1.596.281 2.268.87a3.212 3.212 0 0 1 1.148 2.467c0 .954-.448 1.739-1.68 3.141l-5.405 6.141 6.721 10.628c.868 1.402 1.232 2.131 1.232 3.028zm280.521-25.434c1.484 0 2.632.674 3.164 1.739.392.785.476 1.486.476 3.253v18.844c0 1.766-.084 2.467-.476 3.253-.532 1.065-1.68 1.738-3.164 1.738-1.485 0-2.633-.673-3.165-1.738-.392-.786-.476-1.487-.476-3.253V18.037c0-1.767.084-2.468.476-3.253.532-1.065 1.68-1.739 3.165-1.739zm41.614 0c1.484 0 2.633.674 3.165 1.739.392.785.476 1.486.476 3.253v18.844c0 1.766-.084 2.467-.476 3.253-.532 1.065-1.681 1.738-3.165 1.738s-2.632-.673-3.164-1.738c-.392-.786-.476-1.487-.476-3.253V18.037c0-1.767.084-2.468.476-3.253.532-1.065 1.68-1.739 3.164-1.739z"/>
    <path fill="#256BFB" fill-rule="evenodd" d="M256.17 36.937c0-2.692-2.24-4.879-4.929-4.879a4.88 4.88 0 0 0 0 9.758c2.689 0 4.929-2.187 4.929-4.879z"/>
</svg>
