<svg xmlns="http://www.w3.org/2000/svg" viewBox="0 0 364 43">
<path fill="#27253E" fill-rule="evenodd" d="M362.394 30.571h-13.487c.3 3.166 1.079 5.675 5.994 5.675 2.338 0 4.016-.538 5.635-1.135 1.019-.358 1.438.179 1.678.956l1.199 3.465c.3.896-.24 1.493-.959 1.792-2.698 1.194-5.215 1.672-9.111 1.672-7.733 0-12.648-4.838-12.648-15.053 0-8.662 4.376-14.875 11.749-14.875 7.912 0 11.568 5.377 11.568 15.89 0 .896-.719 1.613-1.618 1.613zm-9.771-11.41c-2.817 0-3.596 2.927-3.776 6.452h7.373c0-3.405-.779-6.452-3.597-6.452zm-17.611 23.417h-3.117c-.899 0-1.738-.657-1.978-1.613l-.359-1.553c-1.259 1.792-3.357 3.584-6.954 3.584-4.855 0-9.89-2.449-9.89-15.352 0-4.66.78-9.199 3.597-12.007 1.199-1.195 3.716-2.569 6.353-2.569 3.117 0 4.856 1.255 6.174 2.868V1.897c0-.896.72-1.613 1.619-1.613h4.555a1.61 1.61 0 0 1 1.619 1.613v39.068a1.61 1.61 0 0 1-1.619 1.613zm-9.95-22.879c-2.997 0-4.256 2.509-4.256 8.363 0 6.332 1.739 8.005 4.256 8.005 2.458 0 4.076-2.21 4.076-8.005 0-5.914-1.558-8.363-4.076-8.363zm-28.574 13.859h-2.698v7.407c0 .896-.719 1.613-1.618 1.613h-4.675c-.9 0-1.619-.717-1.619-1.613v-7.407h-12.887a1.61 1.61 0 0 1-1.619-1.613v-3.704c0-.776.24-1.732.42-2.628l4.855-21.744c.18-.897 1.139-1.315 2.098-1.315h6.234c1.019 0 1.319.837 1.019 1.793l-6.234 22.162h6.294l1.199-9.498c.12-.896.719-1.613 1.618-1.613h3.297c.899 0 1.618.717 1.618 1.613v9.498h2.698c.899 0 1.618.717 1.618 1.613v3.823c0 .896-.719 1.613-1.618 1.613zm-39.826 2.27h10.97c.899 0 1.678.776 1.678 1.673v3.405c0 .896-.779 1.672-1.678 1.672H248.57c-.899 0-1.678-.776-1.678-1.672v-2.39c0-1.075.24-1.673.899-2.509 4.136-4.898 7.313-8.363 9.591-11.35 2.637-3.524 4.016-6.332 4.016-10.095 0-4.122-2.038-5.676-4.855-5.676-2.158 0-4.196.837-6.354 2.27-.839.538-1.798.18-2.218-.657l-1.798-3.405c-.42-.776-.06-1.732.659-2.15 3.117-1.912 6.294-2.987 9.771-2.987 7.972 0 12.887 4.241 12.887 11.947 0 4.72-1.499 8.901-4.736 13.322-2.038 2.748-4.735 5.555-8.092 8.602zm-14.224-5.257h-13.486c.299 3.166 1.078 5.675 5.994 5.675 2.337 0 4.016-.538 5.634-1.135 1.019-.358 1.439.179 1.679.956l1.198 3.465c.3.896-.239 1.493-.959 1.792-2.697 1.194-5.215 1.672-9.111 1.672-7.732 0-12.647-4.838-12.647-15.053 0-8.662 4.375-14.875 11.748-14.875 7.912 0 11.569 5.377 11.569 15.89a1.61 1.61 0 0 1-1.619 1.613zm-9.77-11.41c-2.817 0-3.597 2.927-3.776 6.452h7.372c0-3.405-.779-6.452-3.596-6.452zm-18.912 23.835c-4.975 0-6.653-2.867-6.653-7.407v-15.95h-1.978a1.609 1.609 0 0 1-1.618-1.613v-2.628c0-.896.719-1.613 1.618-1.613h1.978V7.333c0-1.135.3-2.15 1.439-2.389l4.375-1.016c1.379-.298 1.978.478 1.978 1.912v7.945h2.578c.899 0 1.618.717 1.618 1.613v2.628c0 .896-.719 1.613-1.618 1.613h-2.578v13.919c0 1.613.54 2.33 1.199 2.33.54 0 .779 0 1.199-.12.959-.239 1.558.12 1.738 1.075l.72 3.764c.119.777-.24 1.374-1.019 1.613-1.439.478-2.878.776-4.976.776zm-13.175-22.759c-.299.955-.959 1.254-1.798 1.015-.839-.239-1.678-1.135-2.937-1.135-2.278 0-3.477 2.33-3.477 8.542v12.306c0 .896-.719 1.613-1.618 1.613h-4.555c-.9 0-1.619-.717-1.619-1.613V15.398c0-.896.719-1.613 1.619-1.613h3.296c.899 0 1.739.657 1.978 1.613l.42 1.493c1.439-2.21 3.297-3.823 6.114-3.823 1.019 0 1.798.179 2.458.478 1.378.657 1.618 1.494 1.378 2.39l-1.259 4.301zM178.6 42.578h-3.896c-1.019 0-1.499-.597-1.679-1.672l-.239-1.434c-1.499 2.15-4.196 3.524-7.853 3.524-5.514 0-8.212-3.644-8.212-9.319 0-5.137 3.057-9.08 10.43-9.498l4.496-.239c0-3.106-.6-4.361-4.016-4.361-2.098 0-4.496.538-5.994 1.016-1.079.358-1.799-.119-1.978-.956l-.84-3.345c-.239-1.016.06-1.613 1.019-1.912 1.979-.657 5.575-1.314 8.152-1.314 11.09 0 11.449 6.989 11.449 12.186v9.439c0 1.254-.06 2.927.24 4.54l.3 1.732c.179 1.016-.3 1.613-1.379 1.613zm-6.953-13.56l-2.697.119c-2.758.12-4.496 1.494-4.496 4.54 0 2.151 1.558 3.107 2.577 3.107 2.698 0 4.616-1.971 4.616-3.883v-3.883zm-17.396 13.56h-6.293c-1.019 0-1.799-.478-2.338-1.493l-6.474-12.844v12.724c0 .896-.719 1.613-1.618 1.613h-4.556a1.609 1.609 0 0 1-1.618-1.613V1.897c0-.896.719-1.613 1.618-1.613h4.556c.899 0 1.618.717 1.618 1.613v22.76l5.695-9.498c.539-.896 1.318-1.374 2.337-1.374h5.875c.959 0 1.318 1.016.719 1.852l-7.493 10.275 8.812 14.814c.479.837.119 1.852-.84 1.852zm-31.625.418c-4.975 0-6.653-2.867-6.653-7.407v-15.95h-1.978a1.61 1.61 0 0 1-1.619-1.613v-2.628c0-.896.72-1.613 1.619-1.613h1.978V7.333c0-1.135.3-2.15 1.439-2.389l4.375-1.016c1.379-.298 1.978.478 1.978 1.912v7.945h2.578c.899 0 1.618.717 1.618 1.613v2.628c0 .896-.719 1.613-1.618 1.613h-2.578v13.919c0 1.613.54 2.33 1.199 2.33.54 0 .779 0 1.199-.12.959-.239 1.558.12 1.738 1.075l.72 3.764c.119.777-.24 1.374-1.019 1.613-1.439.478-2.878.776-4.976.776zM105.573 9.305c-2.578 0-4.676-2.091-4.676-4.66s2.098-4.659 4.676-4.659c2.577 0 4.675 2.09 4.675 4.659s-2.098 4.66-4.675 4.66zm4.016 6.093v25.567a1.61 1.61 0 0 1-1.619 1.613h-4.555a1.61 1.61 0 0 1-1.619-1.613V19.639h-1.978a1.609 1.609 0 0 1-1.618-1.613v-2.628c0-.896.719-1.613 1.618-1.613h8.152a1.61 1.61 0 0 1 1.619 1.613zm-15.987 27.18h-3.117c-.899 0-1.738-.657-1.978-1.613l-.36-1.553c-1.258 1.792-3.356 3.584-6.953 3.584-4.855 0-9.89-2.449-9.89-15.352 0-4.66.779-9.199 3.596-12.007 1.199-1.195 3.717-2.569 6.354-2.569 3.117 0 4.855 1.255 6.174 2.868V1.897c0-.896.719-1.613 1.618-1.613h4.556c.899 0 1.618.717 1.618 1.613v39.068c0 .896-.719 1.613-1.618 1.613zm-9.95-22.879c-2.997 0-4.256 2.509-4.256 8.363 0 6.332 1.738 8.005 4.256 8.005 2.457 0 4.076-2.21 4.076-8.005 0-5.914-1.559-8.363-4.076-8.363zM66.76 30.571H53.273c.3 3.166 1.08 5.675 5.995 5.675 2.337 0 4.016-.538 5.634-1.135 1.019-.358 1.439.179 1.678.956l1.199 3.465c.3.896-.239 1.493-.959 1.792-2.697 1.194-5.215 1.672-9.111 1.672-7.732 0-12.647-4.838-12.647-15.053 0-8.662 4.375-14.875 11.748-14.875 7.912 0 11.569 5.377 11.569 15.89a1.61 1.61 0 0 1-1.619 1.613zm-9.77-11.41c-2.817 0-3.597 2.927-3.776 6.452h7.372c0-3.405-.779-6.452-3.596-6.452zm-14.176 1.076c-.3.955-.959 1.254-1.798 1.015-.84-.239-1.679-1.135-2.937-1.135-2.278 0-3.477 2.33-3.477 8.542v12.306c0 .896-.719 1.613-1.618 1.613h-4.556a1.609 1.609 0 0 1-1.618-1.613V15.398c0-.896.719-1.613 1.618-1.613h3.297c.899 0 1.738.657 1.978 1.613l.42 1.493c1.438-2.21 3.296-3.823 6.113-3.823 1.019 0 1.799.179 2.458.478 1.379.657 1.618 1.494 1.379 2.39l-1.259 4.301zM22.913 42.578h-6.294c-1.019 0-1.798-.478-2.338-1.493L7.808 28.241v12.724c0 .896-.719 1.613-1.619 1.613H1.634a1.609 1.609 0 0 1-1.618-1.613V1.897c0-.896.719-1.613 1.618-1.613h4.555c.9 0 1.619.717 1.619 1.613v22.76l5.694-9.498c.54-.896 1.319-1.374 2.338-1.374h5.874c.959 0 1.319 1.016.719 1.852l-7.492 10.275 8.811 14.814c.48.837.12 1.852-.839 1.852z"/>
<path fill="#00AFFF" fill-rule="evenodd" d="M309.789 38.217c0-2.628-2.158-4.779-4.795-4.779s-4.795 2.151-4.795 4.779c0 2.629 2.158 4.779 4.795 4.779s4.795-2.15 4.795-4.779z"/>
</svg>
