<svg xmlns="http://www.w3.org/2000/svg" viewBox="0 0 24 23">
  <path d="M18.861 22.993v-8.298c0-2.086-.745-3.508-2.609-3.508-1.422 0-2.27.959-2.642 1.885-.136.332-.17.794-.17 1.259v8.662H8.291s.068-14.058 0-15.512h5.149v2.2c-.01.016-.024.033-.034.05h.034v-.05c.684-1.058 1.905-2.565 4.641-2.565 3.388 0 5.928 2.217 5.928 6.982v8.895h-5.148zM2.867 5.363h-.034c-1.727 0-2.845-1.192-2.845-2.681 0-1.523 1.152-2.68 2.913-2.68 1.762 0 2.846 1.157 2.879 2.68 0 1.489-1.117 2.681-2.913 2.681zm2.575 17.63H.293V7.481h5.149v15.512z" />
</svg>
