<svg xmlns="http://www.w3.org/2000/svg" viewBox="0 0 740 48">
    <path fill="#004BE3" fill-rule="evenodd" d="M722.091 25.941c.2 6.048 2.35 9.047 7.024 9.047 3.799 0 6.248-1.5 6.248-5.099h3.499c0 4.799-3.199 8.048-9.797 8.048-7.398 0-10.498-4.649-10.498-12.997 0-8.447 4.099-12.796 10.648-12.796 6.498 0 9.897 4.099 9.897 11.797v2h-17.021zm7.024-10.848c-4.224 0-6.674 2.624-6.999 7.748h13.497c-.175-4.799-1.999-7.748-6.498-7.748zm-19.376 19.595c-1.925 1.95-4.499 3.249-7.623 3.249-6.199 0-8.848-4.698-8.848-12.997 0-8.148 2.649-12.796 8.798-12.796 3.049 0 5.623 1.275 7.573 3.149a19.832 19.832 0 0 1-.075-1.6V1.946h3.499v35.492h-3.099l-.225-2.75zm-.175-15.846c-1.65-1.849-4.249-3.699-7.048-3.699-4.549 0-5.749 4.199-5.749 9.897 0 5.799 1.15 9.898 5.749 9.898 2.799 0 5.398-1.849 7.048-3.699V18.842zm-40.175 3.074c0-2.799-.875-4.124-2.974-4.124-1.549 0-3.224.875-4.499 1.95v17.696h-7.048V1.946h7.048v9.773c0 .825-.05 1.899-.125 2.874 2.025-1.724 4.824-3.049 7.573-3.049 5.199 0 7.074 3.149 7.074 7.998v17.896h-7.049V21.916zm-29.048 10.773c2.374 0 3.674-1.425 3.674-4.449h6.948c0 4.849-2.199 9.847-10.722 9.847-8.223 0-11.347-4.674-11.347-13.246 0-8.773 3.599-13.347 11.572-13.347 8.223 0 10.497 4.973 10.497 9.848h-6.948c0-3-1.35-4.449-3.724-4.449-3.074 0-4.249 2.349-4.249 7.822 0 5.724 1.35 7.974 4.299 7.974zM621.618 8.844c-2.625 0-4.349-1.574-4.349-4.124 0-2.574 1.724-4.148 4.349-4.148 2.624 0 4.348 1.574 4.348 4.148 0 2.55-1.724 4.124-4.348 4.124zm-19.001 23.944c2.549 0 3.999-1.299 3.999-3.598h6.948c0 3.899-2.149 8.897-10.972 8.897-8.423 0-11.597-4.674-11.597-13.297 0-9.822 4.948-13.296 11.722-13.296 6.873 0 11.097 3.599 11.097 12.821v2.275h-15.671c.15 4.374 1.524 6.198 4.474 6.198zm4.149-10.647c-.125-3.399-1.3-5.349-4.149-5.349-2.675 0-4.199 1.65-4.449 5.349h8.598zM580.07 1.946h7.048v35.492h-7.048V1.946zm-18.251 31.143h6.648c5.399 0 9.198 1.999 9.198 7.173 0 5.499-5.374 7.573-12.397 7.573h-.3c-6.673 0-11.247-1.524-11.247-5.874 0-2.224 1.299-3.749 3.074-4.649-1.425-.674-2.1-1.974-2.1-3.499 0-1.974 1.35-3.424 2.55-4.599l1-.974c-2.25-1.7-3.4-4.274-3.4-7.399 0-5.598 3.65-9.497 10.698-9.497 1.749 0 3.299.25 4.624.7.7-1.15.875-2.55.875-4.374v-.425h6.023v.575c0 2.824-.775 5.148-3.149 6.623 1.499 1.625 2.249 3.824 2.249 6.324 0 5.548-3.599 9.522-10.622 9.522-1.05 0-2.025-.074-2.924-.25l-1.25 1.375c-.25.275-.525.625-.525 1 0 .449.375.675.975.675zm3.724-7.724c2.249 0 3.699-1.474 3.699-4.524 0-3.099-1.375-4.573-3.724-4.573-2.225 0-3.749 1.425-3.749 4.573 0 3.1 1.399 4.524 3.774 4.524zm-5.574 15.772c0 1.874 1.725 2.799 5.349 2.799 3.399 0 5.448-.8 5.448-2.675 0-1.899-1.424-2.549-3.849-2.549l-5.873-.025c-.65.675-1.075 1.5-1.075 2.45zm-8.702-21.87c-3.849 0-5.598 2.524-5.598 6.573v11.598h-7.049V12.144h6.249l.325 3.974c.999-2.675 3.374-4.624 6.323-4.624.6 0 1.05.05 1.575.125l-.625 7.648h-1.2zm-27.974 13.521c2.55 0 3.999-1.299 3.999-3.598h6.948c0 3.899-2.149 8.897-10.972 8.897-8.423 0-11.597-4.674-11.597-13.297 0-9.822 4.949-13.296 11.722-13.296 6.874 0 11.097 3.599 11.097 12.821v2.275h-15.671c.15 4.374 1.525 6.198 4.474 6.198zm4.149-10.647c-.125-3.399-1.299-5.349-4.149-5.349-2.674 0-4.199 1.65-4.449 5.349h8.598zm-33.398 15.297l-7.698-25.294h7.473l3.124 11.622c.55 2.424 1.225 6.223 1.375 8.373h.15c.15-2.125.75-5.824 1.425-8.373l3.099-11.622h7.398l-7.698 25.294h-8.648zm-23.373-17.821h14.297v5.823h-14.297v-5.823zm-16.852 13.472h6.649c5.398 0 9.197 1.999 9.197 7.173 0 5.499-5.373 7.573-12.397 7.573h-.299c-6.674 0-11.248-1.524-11.248-5.874 0-2.224 1.3-3.749 3.075-4.649-1.425-.674-2.1-1.974-2.1-3.499 0-1.974 1.35-3.424 2.549-4.599l1-.974c-2.249-1.7-3.399-4.274-3.399-7.399 0-5.598 3.649-9.497 10.697-9.497 1.75 0 3.3.25 4.624.7.7-1.15.875-2.55.875-4.374v-.425h6.024v.575c0 2.824-.775 5.148-3.15 6.623 1.5 1.625 2.25 3.824 2.25 6.324 0 5.548-3.599 9.522-10.623 9.522-1.049 0-2.024-.074-2.924-.25l-1.249 1.375c-.25.275-.525.625-.525 1 0 .449.375.675.974.675zm3.724-7.724c2.25 0 3.7-1.474 3.7-4.524 0-3.099-1.375-4.573-3.725-4.573-2.224 0-3.749 1.425-3.749 4.573 0 3.1 1.4 4.524 3.774 4.524zm-5.573 15.772c0 1.874 1.724 2.799 5.349 2.799 3.399 0 5.448-.8 5.448-2.675 0-1.899-1.424-2.549-3.849-2.549l-5.873-.025c-.65.675-1.075 1.5-1.075 2.45zm-16.203-19.221c0-2.799-.874-4.124-2.974-4.124-1.55 0-3.224.875-4.499 1.95v17.696h-7.048V12.144h6.348l.3 2.699c2.05-1.85 4.974-3.299 7.848-3.299 5.124 0 7.074 3.149 7.074 7.998v17.896h-7.049V21.916zm-26.199 12.947c-2.05 1.8-4.949 3.174-7.848 3.174-5.099 0-6.974-3.399-6.974-7.923v-17.97h7.074V27.69c0 2.899.649 4.174 2.899 4.174 1.475 0 3.149-.9 4.449-1.95v-17.77h7.048v25.294h-6.348l-.3-2.575zm-19.549-15.596c-3.85 0-5.599 2.524-5.599 6.573v11.598h-7.048V12.144h6.248l.325 3.974c1-2.675 3.374-4.624 6.323-4.624.6 0 1.05.05 1.575.125l-.625 7.648h-1.199zm-27.975 13.521c2.55 0 3.999-1.299 3.999-3.598h6.949c0 3.899-2.15 8.897-10.973 8.897-8.422 0-11.597-4.674-11.597-13.297 0-9.822 4.949-13.296 11.722-13.296 6.874 0 11.098 3.599 11.098 12.821v2.275H357.57c.15 4.374 1.525 6.198 4.474 6.198zm4.149-10.647c-.124-3.399-1.299-5.349-4.149-5.349-2.674 0-4.198 1.65-4.448 5.349h8.597zm-26.599-.225c0-2.799-.875-4.124-2.975-4.124-1.549 0-3.224.875-4.499 1.95v17.696h-7.048V1.946h7.048v9.773c0 .825-.05 1.899-.125 2.874 2.025-1.724 4.824-3.049 7.574-3.049 5.198 0 7.073 3.149 7.073 7.998v17.896h-7.048V21.916zm-29.049 10.773c2.374 0 3.674-1.425 3.674-4.449h6.948c0 4.849-2.199 9.847-10.722 9.847-8.223 0-11.347-4.674-11.347-13.246 0-8.773 3.599-13.347 11.572-13.347 8.223 0 10.497 4.973 10.497 9.848h-6.948c0-3-1.35-4.449-3.724-4.449-3.074 0-4.249 2.349-4.249 7.822 0 5.724 1.35 7.974 4.299 7.974zM291.822 8.844c-2.625 0-4.349-1.574-4.349-4.124 0-2.574 1.724-4.148 4.349-4.148 2.624 0 4.349 1.574 4.349 4.148 0 2.55-1.725 4.124-4.349 4.124zm-13.327 14.347c3.349 1 5.899 2.874 5.899 7.098 0 4.074-2.924 7.798-10.548 7.798-6.823 0-10.722-2.249-10.722-8.173h6.948c0 2.3 1.6 3.225 3.799 3.225 2.375 0 3.5-1.025 3.5-2.5 0-1.624-1.15-2.174-2.65-2.624l-5.473-1.6c-3.225-.949-5.724-3.099-5.724-7.098 0-5.124 4.074-7.823 10.422-7.823 6.224 0 10.198 2.349 10.198 7.998h-6.698c-.026-2.3-1.675-3.049-3.475-3.049-2.499 0-3.424 1.175-3.424 2.524 0 1.6 1.1 2.174 2.749 2.674l5.199 1.55zm-18.449-3.924c-3.849 0-5.599 2.524-5.599 6.573v11.598h-7.048V12.144h6.248l.325 3.974c1-2.675 3.374-4.624 6.324-4.624.599 0 1.049.05 1.574.125l-.625 7.648h-1.199zm-27.974 13.521c2.549 0 3.999-1.299 3.999-3.598h6.948c0 3.899-2.149 8.897-10.972 8.897-8.423 0-11.598-4.674-11.598-13.297 0-9.822 4.949-13.296 11.723-13.296 6.873 0 11.097 3.599 11.097 12.821v2.275h-15.671c.15 4.374 1.524 6.198 4.474 6.198zm4.149-10.647c-.125-3.399-1.3-5.349-4.149-5.349-2.675 0-4.199 1.65-4.449 5.349h8.598zm-33.399 15.297l-7.698-25.294h7.473l3.125 11.622c.55 2.424 1.224 6.223 1.374 8.373h.15c.15-2.125.75-5.824 1.425-8.373l3.099-11.622h7.398l-7.698 25.294h-8.648zm-16.977-2.375c-1.849 1.75-4.349 2.974-7.048 2.974-6.274 0-8.898-4.474-8.898-13.322 0-8.597 2.799-13.171 8.948-13.171 2.549 0 4.749 1 6.548 2.499a38.885 38.885 0 0 1-.075-2.274V1.946h7.049v35.492h-6.174l-.35-2.375zm-.525-15.871c-1.249-.975-2.774-1.675-4.174-1.675-2.999 0-4.024 2.5-4.024 7.299 0 4.924 1.1 7.273 3.924 7.273 1.45 0 3.025-.775 4.274-1.8V19.192zm-25.524 15.621c-2.1 1.975-4.724 3.274-7.849 3.274-5.048 0-7.898-2.749-7.898-7.723 0-5.349 3.9-7.773 10.298-7.773h4.749v-1.85c0-2.299-.825-3.898-3.624-3.898-2.225 0-3.6 1.024-3.6 3.074h-6.948c0-5.549 3.999-8.423 10.648-8.423 7.498 0 10.572 3.299 10.572 9.972v15.972h-5.899l-.449-2.625zm-.7-7.773h-3.799c-2.325 0-4.074.8-4.074 2.974 0 1.9 1.199 2.875 3.124 2.875 1.924 0 3.699-1.25 4.749-2.625V27.04zm-18.375-7.773c-3.849 0-5.599 2.524-5.599 6.573v11.598h-7.048V12.144h6.249l.325 3.974c.999-2.675 3.374-4.624 6.323-4.624.6 0 1.05.05 1.575.125l-.625 7.648h-1.2zm-17.525 0c-3.849 0-5.598 2.524-5.598 6.573v11.598h-7.049V12.144h6.249l.325 3.974c1-2.675 3.374-4.624 6.323-4.624.6 0 1.05.05 1.575.125l-.625 7.648h-1.2zm-28.324 18.82c-8.497 0-11.572-4.724-11.572-13.222 0-8.522 3.375-13.371 11.673-13.371 8.473 0 11.547 4.724 11.547 13.221 0 8.499-3.399 13.372-11.648 13.372zm.075-21.244c-3.299 0-4.498 2.199-4.498 7.947 0 5.749 1.199 7.949 4.498 7.949 3.25 0 4.424-2.2 4.424-7.949 0-5.748-1.149-7.947-4.424-7.947zM75.998 37.988c-5.374 0-7.373-2.925-7.373-8.449V17.817h-3.999v-5.673h4.024l1.075-7.198h5.948v7.198h5.649v5.673h-5.649v10.847c0 2.65.475 3.4 3.024 3.4.925 0 1.9-.075 2.625-.175v5.549c-1.25.274-3.249.55-5.324.55zm-25.025.099c-8.498 0-11.572-4.724-11.572-13.222 0-8.522 3.374-13.371 11.672-13.371 8.473 0 11.547 4.724 11.547 13.221 0 8.499-3.399 13.372-11.647 13.372zm.075-21.244c-3.299 0-4.499 2.199-4.499 7.947 0 5.749 1.2 7.949 4.499 7.949 3.249 0 4.424-2.2 4.424-7.949 0-5.748-1.15-7.947-4.424-7.947zm-22.479 4.748c0-2.724-.825-3.924-2.849-3.924-1.4 0-2.875.825-4.074 1.95v17.821h-7.048V21.591c0-2.724-.825-3.924-2.825-3.924-1.449 0-2.924.85-4.099 1.975v17.796H.626V12.144h6.373l.275 2.674c1.975-1.874 4.649-3.274 7.424-3.274 3.249 0 5.223 1.349 6.198 3.649 2.024-2.125 4.874-3.649 7.773-3.649 4.974 0 6.948 3.149 6.948 7.998v17.896h-7.048V21.591zm266.777 15.847h-7.048V12.144h7.048v25.294zm329.796 0h-7.049V12.144h7.049v25.294z"></path>
    <path fill="#FC0" fill-rule="evenodd" d="M684.917 38.087c2.349 0 4.099-1.725 4.099-4.049 0-2.324-1.75-4.049-4.099-4.049-2.325 0-4.074 1.725-4.074 4.049 0 2.324 1.749 4.049 4.074 4.049z"></path>
</svg>
