<svg xmlns="http://www.w3.org/2000/svg"  viewBox="0 0 311 48">
    <path d="M298.168 48.004h-2.056l.181-5.691c-2.479 3.693-5.743 5.691-9.794 5.691-7.135 0-12.213-5.571-12.213-15.438 0-11.808 7.134-18.165 16.022-18.165 2.479 0 4.595.665 5.985 1.816v-9.93l-3.325-1.694V2.776l12.636-2.785h1.875v40.445c0 2.058.12 2.966 2.055 3.027l1.451.06v2.361l-12.817 2.12zm-1.875-23.976c0-4.056-1.148-6.236-4.292-6.236-4.293 0-6.53 4.54-6.53 11.381 0 7.448 2.66 12.534 7.376 12.534 1.209 0 2.358-.243 3.446-.848V24.028zm-34.34 1.756v15.983c0 2.605 1.39 2.845 4.837 3.27v2.361h-19.348v-2.361c2.419-.182 3.386-.425 3.386-2.362V21.424l-3.325-2.058V17.67l12.636-3.512h2.056l-.242 9.325c2.479-7.084 4.595-9.325 8.404-9.325 1.391 0 2.418.425 3.023 1.029v8.416h-1.451c-3.809 0-7.195.122-9.976 2.181zm-23.034 22.22c-3.507 0-6.046-1.877-6.953-5.086-1.754 2.543-4.656 4.903-9.13 4.903-5.078 0-8.646-2.905-8.646-8.113 0-5.267 3.689-7.446 7.981-8.96l9.614-3.39v-6.177c0-2.785-.787-4.661-3.145-4.661-2.357 0-3.264 1.937-3.264 4.783 0 1.393.242 2.785.544 4.238l-6.711.908c-1.754-.605-2.963-2.058-2.963-4.239 0-5.508 5.683-8.052 12.999-8.052 8.465 0 13.543 2.664 13.543 10.534v16.047c0 1.452.182 2.724 1.633 2.724.846 0 1.632-.182 2.055-.363l.424 1.634c-1.996 1.998-4.595 3.27-7.981 3.27zm-7.134-18.044l-3.326 1.272c-2.116.787-3.507 1.937-3.507 5.389 0 3.087 1.149 5.388 4.172 5.388.968 0 1.693-.302 2.661-.846V29.96zm-34.462 14.835c5.018 0 8.888-3.572 11.306-12.776h3.023l-1.028 12.049c-3.506 2.483-8.887 3.936-14.813 3.936-13.785 0-22.309-7.932-22.309-20.706 0-14.229 10.278-23.009 22.854-23.009 5.441 0 10.036 1.272 13.482 3.572l.182 10.596h-2.963c-1.511-7.204-4.716-11.14-10.339-11.14-7.557 0-10.701 8.052-10.701 18.285 0 11.079 3.869 19.193 11.306 19.193zm-43.047.242c2.419-.182 3.205-.425 3.205-2.362V24.996c0-2.664-.907-4.238-4.051-4.238-1.935 0-3.628.545-5.2 1.332v20.585c0 1.937.847 2.18 3.265 2.362v2.361H133.72v-2.361c2.418-.182 3.386-.425 3.386-2.362V21.424l-3.326-2.058V17.67l12.637-3.512h2.055l-.242 6.055c2.298-2.905 5.805-6.055 11.246-6.055 5.865 0 9.19 3.27 9.19 9.93v18.587c0 1.937.967 2.18 3.386 2.362v2.361h-17.776v-2.361zm-40.145 0c2.418-.182 3.386-.425 3.386-2.362V21.424l-3.326-2.058V17.67l12.576-3.512h1.874v28.517c0 1.937.968 2.18 3.386 2.362v2.361h-17.896v-2.361zm9.069-33.542c-3.749 0-5.925-2.605-5.925-5.631 0-3.028 2.176-5.571 5.925-5.571 3.628 0 5.925 2.543 5.925 5.571 0 3.026-2.297 5.631-5.925 5.631zm-20.314 36.509c-5.562 0-9.432-2.786-9.432-9.929V18.033h-3.446v-1.997c4.837-1.817 9.19-5.329 12.334-9.507h2.358v8.235h7.074v3.269H104.7v20.042c0 2.905 1.149 4.176 3.446 4.176 1.572 0 2.902-.544 4.353-1.512l.907 1.331c-2.297 3.754-5.683 5.934-10.52 5.934zm-12.333-3.27c-1.995 1.998-4.594 3.27-7.98 3.27-3.507 0-6.046-1.877-6.953-5.086-1.754 2.543-4.656 4.903-9.13 4.903-5.079 0-8.646-2.905-8.646-8.113 0-5.267 3.688-7.446 7.981-8.96l9.613-3.39v-6.177c0-2.785-.786-4.661-3.144-4.661s-3.264 1.937-3.264 4.783c0 1.393.241 2.785.544 4.238l-6.711.908c-1.754-.605-2.963-2.058-2.963-4.239 0-5.508 5.683-8.052 12.999-8.052 8.464 0 13.543 2.664 13.543 10.534v16.047c0 1.452.182 2.724 1.633 2.724.846 0 1.632-.182 2.055-.363l.423 1.634zM75.438 29.96l-3.325 1.272c-2.116.787-3.507 1.937-3.507 5.389 0 3.087 1.149 5.388 4.172 5.388.968 0 1.693-.302 2.66-.846V29.96zM38.619 45.037c2.418-.182 3.386-.425 3.386-2.362V6.287l-3.326-1.694V2.776L51.316-.009h1.874v42.684c0 1.937.967 2.18 3.386 2.362v2.361H38.619v-2.361zM20.421 30.99h-4.172v9.626c0 3.209 1.633 3.937 7.014 4.239v2.543H-.015v-2.543c4.051-.423 4.414-.908 4.414-4.056V11.495c0-3.149-.363-3.634-4.414-4.057V4.895h20.92c11.79 0 17.231 5.509 17.231 12.835 0 8.356-5.744 13.26-17.715 13.26zM17.64 7.74h-1.391v20.102h1.391c5.804 0 8.888-3.874 8.888-10.112 0-6.235-3.447-9.99-8.888-9.99z"></path>
</svg>