<svg xmlns="http://www.w3.org/2000/svg" viewBox="0 0 245 60">
    <path fill="#222" fill-rule="evenodd" d="M239.676 42.051v-2.632c-1.794 2.153-4.603 3.204-8.383 3.204-5.962 0-8.822-3.104-8.822-7.841 0-3.013 1.354-5.162 4.068-6.359.631-.288 1.263-.528 1.894-.672 1.162-.284 4.896-.617 10.955-.617v-1.246c0-3.011-1.794-4.541-5.381-4.541-3.153 0-4.897 1.241-5.332 3.682h-5.623c.243-2.441 1.309-4.451 3.103-6.024 1.793-1.58 4.457-2.343 7.998-2.343 7.17 0 10.858 3.393 10.858 9.274v16.115h-5.335zm-.288-10.616c-5.624 0-8.919.238-9.889.767-1.02.524-1.505 1.43-1.505 2.771 0 2.154 1.455 3.205 4.315 3.205 4.704 0 7.079-1.818 7.079-5.452v-1.291zm-23.804-18.362c-2.132 0-3.637-1.434-3.637-3.489 0-2.103 1.505-3.587 3.637-3.587 2.083 0 3.588 1.484 3.588 3.587 0 2.055-1.505 3.489-3.588 3.489zm2.86 28.978h-5.77V22.303h-3.683v-5.068h9.453v24.816zm-18.33-3.539c-1.697 2.726-4.557 4.111-8.483 4.111-3.588 0-6.397-1.241-8.484-3.727-2.082-2.437-3.148-5.547-3.148-9.231 0-3.679 1.066-6.788 3.148-9.275 2.087-2.488 4.896-3.728 8.484-3.728 3.637 0 6.351 1.29 8.048 3.823V6.19h5.766v35.861h-5.331v-3.539zm-2.086-14.584c-1.309-1.481-3.002-2.247-5.185-2.247-2.132 0-3.83.766-5.138 2.247-1.309 1.481-1.94 3.395-1.94 5.737 0 2.247.631 4.161 1.94 5.641 1.308 1.531 3.006 2.298 5.138 2.298 2.183 0 3.876-.767 5.185-2.246 1.263-1.486 1.894-3.395 1.894-5.693 0-2.342-.631-4.256-1.894-5.737zm-40.139 7.362c.435 3.972 3.006 6.459 7.028 6.459 2.956 0 4.993-1.29 6.109-3.828l5.184 1.341c-1.793 4.541-6.058 7.361-11.439 7.361-3.73 0-6.786-1.241-9.065-3.683-2.325-2.436-3.487-5.542-3.487-9.32 0-3.684 1.162-6.743 3.487-9.23 2.329-2.488 5.335-3.728 9.019-3.728s6.69 1.196 8.968 3.632c2.279 2.438 3.391 5.547 3.391 9.227l-.046 1.769h-19.149zm6.836-9.993c-3.638 0-6.159 2.297-6.74 5.787h13.38c-.531-3.49-2.956-5.787-6.64-5.787zm-22.005 5.881c0-3.778-1.602-5.642-4.75-5.642-3.491 0-5.674 2.298-5.674 6.265v14.25h-5.77V27.178c0-3.778-1.597-5.642-4.75-5.642-3.441 0-5.623 2.298-5.623 6.075v14.44h-5.766V17.235h5.331v3.299c1.212-2.249 3.779-3.872 7.513-3.872 3.491 0 6.013 1.29 7.564 3.916 2.132-2.626 4.992-3.916 8.529-3.916 5.867 0 9.161 3.916 9.161 9.798v15.591h-5.765V27.178zM99.691 38.8c-1.697 2.532-4.365 3.823-8.048 3.823-3.588 0-6.398-1.241-8.484-3.727-2.082-2.437-3.148-5.547-3.148-9.231 0-3.679 1.066-6.788 3.148-9.275 2.086-2.488 4.896-3.728 8.484-3.728 3.926 0 6.74 1.386 8.483 4.111v-3.538h5.331v34.758h-5.766V38.8zM98.04 23.928c-1.309-1.481-3.002-2.247-5.185-2.247-2.132 0-3.83.766-5.138 2.247-1.309 1.481-1.94 3.395-1.94 5.737 0 2.247.631 4.161 1.94 5.641 1.308 1.531 3.006 2.298 5.138 2.298 2.183 0 3.876-.767 5.185-2.246 1.262-1.486 1.894-3.395 1.894-5.693 0-2.342-.632-4.256-1.894-5.737z"/>
    <path fill="#569CB6" fill-rule="evenodd" d="M59.991 30.012c0-16.543-13.458-30-29.999-30-16.542 0-30 13.457-30 30 0 16.541 13.458 29.999 30 29.999 3.62 0 7.092-.644 10.307-1.824l-4.281-4.727a24.232 24.232 0 0 1-6.026.757c-13.369 0-24.206-10.836-24.206-24.205 0-13.368 10.837-24.206 24.206-24.206 13.368 0 24.206 10.838 24.206 24.206 0 7.232-3.181 13.713-8.21 18.148l-3.899-4.283c3.87-3.38 6.33-8.337 6.33-13.865 0-10.161-8.266-18.428-18.427-18.428s-18.427 8.267-18.427 18.428c0 10.16 8.266 18.427 18.427 18.427 2.642 0 5.151-.569 7.425-1.576l11.878 13.123 7.479.025-6.903-7.585c6.195-5.499 10.12-13.499 10.12-22.414zm-42.632 0c0-6.977 5.656-12.634 12.633-12.634 6.977 0 12.633 5.657 12.633 12.634 0 6.976-5.656 12.632-12.633 12.632-6.977 0-12.633-5.656-12.633-12.632z"/>
</svg>
