<svg xmlns="http://www.w3.org/2000/svg" viewBox="0 0 295 53">
    <path fill="#333" fill-rule="evenodd" d="M294.213 32.373c-1.803 6.161-6.79 9.99-13.52 9.99-6.849 0-11.897-3.769-13.639-9.811-.541-1.794-.841-3.948-.841-6.101 0-2.274.3-4.547.901-6.341 1.803-5.863 6.79-9.452 13.64-9.452 6.609 0 11.476 3.589 13.339 9.392.601 1.854.901 4.067.901 6.281 0 2.093-.3 4.247-.781 6.042zm-8.232-10.17c-.781-2.692-2.644-4.307-5.408-4.307-2.704 0-4.566 1.675-5.347 4.307-.301 1.077-.481 2.633-.481 4.248 0 1.555.18 3.11.481 4.187.781 2.752 2.643 4.486 5.467 4.486 2.644 0 4.507-1.734 5.288-4.486.361-1.196.481-2.692.481-4.187 0-1.615-.181-3.171-.481-4.248zm-22.293-3.23c-.12.718-.48.777-1.201.658-.782-.24-1.923-.299-3.125-.12-2.704.239-5.167 2.094-5.167 5.325v16.032c0 .658-.361 1.016-1.022 1.016h-6.429c-.661 0-1.022-.358-1.022-1.016V12.153c0-.658.361-1.017 1.022-1.017h6.429c.661 0 1.022.359 1.022 1.017v1.854c0 .3.18.419.42.18 1.442-2.094 3.545-3.469 6.49-3.469 1.442 0 2.463.298 3.184.717.541.24.661.718.541 1.256l-1.142 6.282zm-34.869 23.45c-3.124 0-5.347-1.077-6.85-2.932-.18-.239-.42-.119-.42.18v12.323c0 .658-.361 1.017-1.022 1.017h-6.429c-.661 0-1.021-.359-1.021-1.017V12.153c0-.658.36-1.017 1.021-1.017h6.429c.661 0 1.022.359 1.022 1.017v1.615c0 .299.24.36.42.12 1.503-1.974 3.666-3.23 6.85-3.23 5.468 0 9.975 3.529 11.597 8.794.781 2.213 1.022 4.665 1.022 7.178 0 2.632-.301 5.204-1.142 7.418-1.743 5.025-5.949 8.375-11.477 8.375zm2.464-21.835c-.901-1.615-2.404-2.572-4.386-2.572-1.803 0-3.185.957-4.086 2.572-.782 1.435-1.202 3.47-1.202 5.922 0 2.573.42 4.666 1.262 6.162.961 1.495 2.283 2.333 4.026 2.333 1.862 0 3.244-.778 4.206-2.273.901-1.496 1.442-3.649 1.442-6.281 0-2.393-.481-4.428-1.262-5.863zm-33.626-1.615c-.12.718-.48.777-1.201.658-.782-.24-1.923-.299-3.125-.12-2.704.239-5.167 2.094-5.167 5.325v16.032c0 .658-.361 1.016-1.022 1.016h-6.429c-.661 0-1.021-.358-1.021-1.016V12.153c0-.658.36-1.017 1.021-1.017h6.429c.661 0 1.022.359 1.022 1.017v1.854c0 .3.18.419.42.18 1.442-2.094 3.545-3.469 6.49-3.469 1.442 0 2.463.298 3.184.717.541.24.661.718.541 1.256l-1.142 6.282zm-23.104 10.229h-18.447c-.24 0-.36.12-.36.359.12.778.24 1.376.42 1.854.842 2.453 3.305 3.829 6.67 3.829 2.704-.12 4.747-1.137 6.069-2.752.481-.538.961-.598 1.442-.119l3.425 3.29c.481.479.481.897.12 1.435-2.584 3.231-6.91 5.265-11.837 5.265-7.571 0-12.438-4.188-14.06-10.529-.481-1.734-.721-3.589-.721-5.563 0-2.273.18-4.128.661-5.863 1.622-5.862 6.729-9.81 13.459-9.81 8.112 0 12.498 5.145 13.82 13.22.18 1.317.3 2.812.36 4.367 0 .658-.36 1.017-1.021 1.017zm-7.811-6.281c-.06-.538-.121-.898-.241-1.256-.721-2.274-2.463-3.769-5.227-3.769-2.644 0-4.326 1.376-4.987 3.53-.121.418-.301.897-.361 1.495-.06.239.06.359.301.359h10.214c.241 0 .361-.12.301-.359zm-24.691 18.963h-6.429c-.661 0-1.022-.358-1.022-1.016V23.28c0-3.17-1.923-5.384-4.867-5.384s-4.987 2.154-4.987 5.384v17.588c0 .658-.36 1.016-1.022 1.016h-6.429c-.661 0-1.021-.358-1.021-1.016V12.153c0-.658.36-1.017 1.021-1.017h6.429c.662 0 1.022.359 1.022 1.017v1.675c0 .3.18.419.36.179 1.683-2.272 4.086-3.349 7.271-3.349 6.309 0 10.695 4.067 10.695 10.887v19.323c0 .658-.36 1.016-1.021 1.016zm-32.19 0h-6.429c-.661 0-1.021-.358-1.021-1.016V23.28c0-3.17-1.923-5.384-4.867-5.384-2.945 0-4.988 2.154-4.988 5.384v17.588c0 .658-.36 1.016-1.021 1.016h-6.429c-.661 0-1.022-.358-1.022-1.016V1.026c0-.658.361-1.016 1.022-1.016h6.429c.661 0 1.021.358 1.021 1.016v12.802c0 .3.181.419.361.179 1.682-2.272 4.086-3.349 7.27-3.349 6.31 0 10.696 4.067 10.696 10.887v19.323c0 .658-.361 1.016-1.022 1.016zM72.98 22.981c-.601.119-1.082-.12-1.142-.658l-.18-.838c-.541-1.974-2.524-3.589-5.288-3.589-2.584 0-4.386 1.376-5.107 3.589-.421 1.137-.661 2.812-.661 4.906 0 2.213.24 3.828.601 4.905.721 2.333 2.523 3.828 5.167 3.828 2.524 0 4.507-1.435 5.228-3.648.06-.18.06-.3.06-.3.06-.239.541-.957 1.201-.837l6.31.957c.6.119.961.538.841 1.137-.06.419-.12.897-.301 1.375-1.742 5.384-7.03 8.555-13.279 8.555-6.429 0-11.356-3.47-13.339-8.973-.721-2.094-1.021-4.487-1.021-7.059 0-2.991.42-5.205 1.021-6.94 1.923-5.384 6.91-8.733 13.339-8.733 6.61 0 11.717 3.709 13.279 8.434.301.718.421 1.376.481 1.855.06.598-.3.957-.901 1.076l-6.309.958zm-25.058 6.221H29.476c-.241 0-.361.12-.361.359.12.778.241 1.376.421 1.854.841 2.453 3.305 3.829 6.669 3.829 2.704-.12 4.747-1.137 6.069-2.752.481-.538.962-.598 1.442-.119l3.425 3.29c.481.479.481.897.12 1.435-2.583 3.231-6.909 5.265-11.837 5.265-7.571 0-12.438-4.188-14.06-10.529-.481-1.734-.721-3.589-.721-5.563 0-2.273.18-4.128.661-5.863 1.622-5.862 6.73-9.81 13.459-9.81 8.112 0 12.498 5.145 13.82 13.22a45.61 45.61 0 0 1 .361 4.367c0 .658-.361 1.017-1.022 1.017zm-7.811-6.281c-.06-.538-.12-.898-.24-1.256-.721-2.274-2.464-3.769-5.228-3.769-2.644 0-4.326 1.376-4.987 3.53-.12.418-.3.897-.36 1.495-.061.239.06.359.3.359h10.215c.24 0 .36-.12.3-.359zm-22.142-3.948c-.121.718-.481.777-1.202.658-.781-.24-1.923-.299-3.125-.12-2.703.239-5.167 2.094-5.167 5.325v16.032c0 .658-.361 1.016-1.022 1.016H1.024c-.661 0-1.021-.358-1.021-1.016V12.153c0-.658.36-1.017 1.021-1.017h6.429c.661 0 1.022.359 1.022 1.017v1.854c0 .3.18.419.421.18 1.442-2.094 3.545-3.469 6.489-3.469 1.442 0 2.463.298 3.184.717.541.24.661.718.541 1.256l-1.141 6.282z"/>
    <path fill="#D00" fill-rule="evenodd" d="M202.357 42.123c3.184 0 5.588-2.332 5.588-5.204 0-2.871-2.704-5.144-5.588-5.144-2.764 0-5.468 2.273-5.468 5.144 0 2.872 2.283 5.204 5.468 5.204z"/>
</svg>
