<svg xmlns="http://www.w3.org/2000/svg" width="488" height="54">
    <path fill="#303F5B" fill-rule="evenodd" d="M484.085 30.609h-17.213c.676 4.472 3.848 6.968 7.904 6.968 2.652 0 4.732-.936 6.501-2.392.467-.364.884-.572 1.612-.572 1.404 0 2.496 1.092 2.496 2.548 0 .78-.364 1.456-.832 1.924-2.496 2.237-5.617 3.641-9.881 3.641-7.956 0-14.092-5.773-14.092-14.249v-.104c0-7.852 5.564-14.301 13.416-14.301 8.737 0 13.053 7.177 13.053 13.521 0 1.768-1.352 3.016-2.964 3.016zm-10.141-11.388c-3.848 0-6.552 2.964-7.124 7.228h14.093c-.416-4.056-2.809-7.228-6.969-7.228zm-21.428 23.141c-1.768 0-3.172-1.352-3.172-3.121v-1.716c-2.028 2.861-4.888 5.149-9.36 5.149-6.449 0-12.741-5.149-12.741-14.249v-.104c0-9.1 6.188-14.249 12.741-14.249 4.524 0 7.384 2.237 9.36 4.837V7a3.096 3.096 0 0 1 3.12-3.12c1.768 0 3.172 1.352 3.172 3.12v32.241a3.096 3.096 0 0 1-3.12 3.121zm-3.068-14.041c0-5.304-3.744-8.788-7.956-8.788-4.317 0-7.905 3.328-7.905 8.788v.104c0 5.304 3.64 8.788 7.905 8.788 4.212 0 7.956-3.536 7.956-8.788v-.104zm-39.519 5.616h-2.808v5.408c0 1.717-1.352 3.017-3.068 3.017s-3.069-1.3-3.069-3.017v-5.408h-16.276c-1.716 0-3.12-1.248-3.12-3.016 0-1.248.468-2.288 1.404-3.38L400.1 7.26c1.144-1.352 2.028-2.08 3.9-2.08 1.717 0 3.121 1.352 3.121 3.068v20.437h2.808a2.63 2.63 0 0 1 2.652 2.652c0 1.456-1.144 2.6-2.652 2.6zm-8.945-19.656l-11.96 14.404h11.96V14.281zm-20.612 25.012a2.797 2.797 0 0 1-2.808 2.809h-20.645c-1.976 0-3.432-1.144-3.432-3.017 0-1.248.572-2.288 1.664-3.172l11.181-9.516c4.992-4.212 6.812-6.552 6.812-9.828 0-3.589-2.548-5.669-5.876-5.669-2.912 0-4.94 1.352-7.176 4.057a2.928 2.928 0 0 1-2.237.988 2.907 2.907 0 0 1-2.912-2.913c0-.676.26-1.404.728-1.976 2.965-3.692 6.345-5.876 12.065-5.876 7.124 0 12.012 4.368 12.012 10.869v.104c0 5.72-3.016 8.84-9.464 14.092l-7.488 6.24h14.768a2.796 2.796 0 0 1 2.808 2.808zm-32.281-8.684h-17.212c.676 4.472 3.848 6.968 7.904 6.968 2.652 0 4.732-.936 6.5-2.392.468-.364.884-.572 1.612-.572 1.404 0 2.496 1.092 2.496 2.548 0 .78-.364 1.456-.832 1.924-2.496 2.237-5.616 3.641-9.88 3.641-7.956 0-14.093-5.773-14.093-14.249v-.104c0-7.852 5.564-14.301 13.417-14.301 8.736 0 13.052 7.177 13.052 13.521 0 1.768-1.352 3.016-2.964 3.016zm-10.14-11.388c-3.848 0-6.552 2.964-7.124 7.228h14.092c-.416-4.056-2.808-7.228-6.968-7.228zm-17.753.832h-4.94v13.468c0 2.444 1.248 3.432 3.38 3.432.728 0 1.352-.156 1.56-.156 1.404 0 2.652 1.144 2.652 2.6 0 1.145-.78 2.081-1.664 2.445a12.516 12.516 0 0 1-4.316.728c-4.628 0-7.904-2.028-7.904-8.061V20.053h-1.04a2.685 2.685 0 0 1-2.704-2.704 2.685 2.685 0 0 1 2.704-2.704h1.04V9.964c0-1.716 1.404-3.12 3.172-3.12a3.13 3.13 0 0 1 3.12 3.12v4.681h4.94c1.508 0 2.756 1.196 2.756 2.704 0 1.508-1.248 2.704-2.756 2.704zm-21.205 22.309c-1.768 0-3.172-1.352-3.172-3.121v-12.74c0-4.264-2.132-6.708-5.876-6.708-3.64 0-6.188 2.548-6.188 6.812v12.636c0 1.769-1.404 3.121-3.172 3.121a3.097 3.097 0 0 1-3.121-3.121V17.505c0-1.768 1.353-3.173 3.121-3.173a3.152 3.152 0 0 1 3.172 3.173v1.352c1.768-2.548 4.316-4.785 8.58-4.785 6.188 0 9.776 4.161 9.776 10.505v14.664c0 1.769-1.352 3.121-3.12 3.121zm-29.338-11.753h-17.212c.676 4.472 3.848 6.968 7.904 6.968 2.652 0 4.732-.936 6.5-2.392.468-.364.884-.572 1.612-.572 1.404 0 2.496 1.092 2.496 2.548 0 .78-.363 1.456-.831 1.924-2.497 2.237-5.617 3.641-9.881 3.641-7.956 0-14.092-5.773-14.092-14.249v-.104c0-7.852 5.564-14.301 13.416-14.301 8.736 0 13.053 7.177 13.053 13.521 0 1.768-1.353 3.016-2.965 3.016zm-10.14-11.388c-3.848 0-6.552 2.964-7.124 7.228h14.092c-.416-4.056-2.808-7.228-6.968-7.228zM235.08 31.129v8.112c0 1.717-1.404 3.121-3.172 3.121a3.096 3.096 0 0 1-3.12-3.121V17.505c0-1.768 1.352-3.173 3.12-3.173a3.152 3.152 0 0 1 3.172 3.173v2.808c1.456-3.432 4.16-6.032 6.917-6.032 1.976 0 3.12 1.3 3.12 3.12 0 1.664-1.092 2.756-2.496 3.016-4.472.78-7.541 4.212-7.541 10.712zm-19.562 0v8.112c0 1.717-1.404 3.121-3.172 3.121a3.096 3.096 0 0 1-3.12-3.121V17.505c0-1.768 1.352-3.173 3.12-3.173a3.152 3.152 0 0 1 3.172 3.173v2.808c1.456-3.432 4.16-6.032 6.917-6.032 1.976 0 3.12 1.3 3.12 3.12 0 1.664-1.092 2.756-2.496 3.016-4.473.78-7.541 4.212-7.541 10.712zm-14.101-.52h-17.213c.676 4.472 3.849 6.968 7.905 6.968 2.652 0 4.732-.936 6.5-2.392.468-.364.884-.572 1.612-.572 1.404 0 2.496 1.092 2.496 2.548 0 .78-.364 1.456-.832 1.924-2.496 2.237-5.616 3.641-9.88 3.641-7.957 0-14.093-5.773-14.093-14.249v-.104c0-7.852 5.564-14.301 13.417-14.301 8.736 0 13.052 7.177 13.052 13.521 0 1.768-1.352 3.016-2.964 3.016zm-10.14-11.388c-3.849 0-6.553 2.964-7.125 7.228h14.093c-.416-4.056-2.808-7.228-6.968-7.228zm-17.753.832h-4.94v13.468c0 2.444 1.248 3.432 3.38 3.432.728 0 1.352-.156 1.56-.156 1.404 0 2.652 1.144 2.652 2.6 0 1.145-.78 2.081-1.664 2.445a12.516 12.516 0 0 1-4.316.728c-4.628 0-7.904-2.028-7.904-8.061V20.053h-1.04a2.685 2.685 0 0 1-2.704-2.704 2.685 2.685 0 0 1 2.704-2.704h1.04V9.964c0-1.716 1.404-3.12 3.172-3.12a3.13 3.13 0 0 1 3.12 3.12v4.681h4.94c1.508 0 2.756 1.196 2.756 2.704 0 1.508-1.248 2.704-2.756 2.704zm-27.565 22.569c-3.484 0-7.28-1.092-10.452-3.277-.676-.364-1.196-1.144-1.196-2.184 0-1.404 1.092-2.548 2.548-2.548.52 0 .988.156 1.352.364 2.652 1.768 5.408 2.652 7.904 2.652 2.704 0 4.264-1.144 4.264-2.964v-.104c0-2.132-2.912-2.86-6.136-3.848-4.056-1.144-8.58-2.808-8.58-8.06v-.104c0-5.2 4.316-8.373 9.776-8.373 2.912 0 5.981.833 8.633 2.237.884.468 1.508 1.3 1.508 2.392 0 1.456-1.144 2.548-2.601 2.548-.52 0-.831-.104-1.247-.312-2.237-1.144-4.525-1.872-6.449-1.872-2.444 0-3.848 1.144-3.848 2.704v.104c0 2.028 2.964 2.86 6.188 3.9 4.005 1.248 8.529 3.068 8.529 8.008v.104c0 5.772-4.473 8.633-10.193 8.633zm-17.133-12.013h-17.212c.676 4.472 3.848 6.968 7.904 6.968 2.652 0 4.732-.936 6.5-2.392.468-.364.884-.572 1.612-.572 1.404 0 2.496 1.092 2.496 2.548 0 .78-.364 1.456-.832 1.924-2.496 2.237-5.616 3.641-9.88 3.641-7.956 0-14.093-5.773-14.093-14.249v-.104c0-7.852 5.565-14.301 13.417-14.301 8.736 0 13.052 7.177 13.052 13.521 0 1.768-1.352 3.016-2.964 3.016zm-10.14-11.388c-3.848 0-6.552 2.964-7.124 7.228h14.092c-.416-4.056-2.808-7.228-6.968-7.228zm-21.341-8.529c-2.028 0-3.588-1.248-3.588-3.12V7.26c0-1.872 1.56-3.068 3.588-3.068s3.588 1.196 3.588 3.068v.312c0 1.872-1.56 3.12-3.588 3.12zM80.783 31.129v8.112c0 1.717-1.404 3.121-3.172 3.121a3.096 3.096 0 0 1-3.12-3.121V17.505c0-1.768 1.352-3.173 3.12-3.173a3.152 3.152 0 0 1 3.172 3.173v2.808c1.457-3.432 4.161-6.032 6.917-6.032 1.976 0 3.12 1.3 3.12 3.12 0 1.664-1.092 2.756-2.496 3.016-4.472.78-7.541 4.212-7.541 10.712zm16.562-16.797a3.152 3.152 0 0 1 3.172 3.173v21.736c0 1.769-1.404 3.121-3.172 3.121a3.096 3.096 0 0 1-3.12-3.121V17.505c0-1.768 1.352-3.173 3.12-3.173z"/>
    <path fill="#73CBD1" fill-rule="evenodd" d="M416.386 38.253v.52c0 2.029 1.56 3.589 3.692 3.589 2.08 0 3.64-1.56 3.64-3.589v-.52c0-2.028-1.56-3.588-3.64-3.588-2.132 0-3.692 1.56-3.692 3.588z"/>
    <path fill="#F78460" fill-rule="evenodd" d="M28 54h-2a8 8 0 0 1-8-8V36H8a8 8 0 0 1-8-8v-2a8 8 0 0 1 8-8h20a8 8 0 0 1 8 8v20a8 8 0 0 1-8 8z"/>
    <path fill="#73CBD1" fill-rule="evenodd" d="M46 36H26a8 8 0 0 1-8-8V8a8 8 0 0 1 8-8h2a8 8 0 0 1 8 8v10h10a8 8 0 0 1 8 8v2a8 8 0 0 1-8 8z"/>
</svg>
