<svg xmlns="http://www.w3.org/2000/svg" viewBox="0 0 27 22">
  <path d="M26.986 2.841c-.979.444-1.804.458-2.679.02 1.128-.687 1.18-1.171 1.587-2.469a10.833 10.833 0 0 1-3.47 1.35 5.414 5.414 0 0 0-3.986-1.754c-3.018 0-5.464 2.489-5.464 5.555 0 .435.048.858.141 1.267-4.541-.231-8.568-2.443-11.262-5.805a5.595 5.595 0 0 0-.74 2.793 5.58 5.58 0 0 0 2.43 4.623 5.353 5.353 0 0 1-2.473-.694l-.001.07c0 2.693 1.883 4.938 4.384 5.447a5.418 5.418 0 0 1-2.469.097c.696 2.205 2.714 3.811 5.104 3.856a10.856 10.856 0 0 1-8.089 2.3 15.291 15.291 0 0 0 8.376 2.496c10.05 0 15.545-8.466 15.545-15.806 0-.243-.004-.481-.015-.72 1.067-.781 2.349-1.511 3.081-2.626z" />
</svg>
