<svg xmlns="http://www.w3.org/2000/svg" viewBox="0 0 22 26">
  <path d="M21.913.807l-8.249 14.694a.023.023 0 0 0 0 .025l5.252 9.667c.105.209.107.421.008.581-.095.156-.27.241-.494.241h-3.723c-.571 0-.855-.383-1.041-.715l-5.294-9.785L16.664.704c.199-.363.441-.715.998-.715h3.764c.224 0 .4.085.495.239.1.159.097.371-.008.579zM4.293 18.223H.568a.548.548 0 0 1-.488-.256c-.098-.16-.103-.368 0-.576l3.96-7.039c.004-.007.004-.011 0-.021L1.52 5.938c-.105-.209-.119-.416-.021-.576.095-.156.284-.234.507-.234h3.727c.572 0 .853.37 1.038.704 0 0 2.546 4.475 2.562 4.499L5.31 17.498c-.19.345-.459.725-1.017.725z" />
</svg>

